# xmcd
#
# Track frame offsets:
# 150
# 21322
# 39810
# 60262
# 80877
# 97347
# 113847
# 131482
# 156892
# 175102
# 197915
# 218835
# 238787
# 256755
# 271130
#
# Disc length: 3845 seconds
#
#
# Revision: 2
# Processed by: cddbd v1.4PL0 Copyright (c) Steve Scherf et al.
# Submitted via: FreeRIP 2.00 
#
DISCID=cc0f030f
DTITLE=Various Artist - Kuschelrock [CD1]
DYEAR=1996
DGENRE=Pop
TTITLE0=Queen - Heaven For Everyone
TTITLE1=Fugees - Killing Me Softly
TTITLE2=Celine Dion -Because You Loved Me
TTITLE3=Whitney Houston - Where Do Broken Hearts Go
TTITLE4=Cat Stevens - Father and Son
TTITLE5=Take That - How Deep Is Your Love
TTITLE6=Nick Cave and The Bad Seeds With Kylie Minogue - Where the Wild Roses Grow
TTITLE7=George Michael - Father Figure
TTITLE8=Billy Joel - Leningrad
TTITLE9=Marla Glen - Believer
TTITLE10=Elton John - Rocket Man
TTITLE11=Amanda Marshall - Let It Rain
TTITLE12=Heart - All I Wanna Do Is Make Love To You
TTITLE13=Bonfire - Feels Like Comin' Home
TTITLE14=Everything But The Girl - Missing
EXTD=
EXTT0=
EXTT1=
EXTT2=
EXTT3=
EXTT4=
EXTT5=
EXTT6=
EXTT7=
EXTT8=
EXTT9=
EXTT10=
EXTT11=
EXTT12=
EXTT13=
EXTT14=
PLAYORDER=
